<svg width="40" height="40" fill="none" xmlns="http://www.w3.org/2000/svg"><path d="M40 20c0 11.046-8.954 20-20 20S0 31.046 0 20 8.954 0 20 0s20 8.954 20 20z" fill="url(#paint0_linear)"/><path d="M29.09 12.75h-3.863v-.46C25.227 9.369 22.887 7 20 7c-2.886 0-5.227 2.369-5.227 5.29v.46h-3.864a.914.914 0 00-.909.92v15.41c0 .509.406.92.91.92h18.18c.504 0 .91-.411.91-.92V13.67a.914.914 0 00-.91-.92zm-12.272-.46c0-1.78 1.423-3.22 3.182-3.22s3.182 1.44 3.182 3.22v.46h-6.364v-.46zm11.136 15.64H12.045V14.82h2.728v2.53c0 .127.102.23.227.23h1.59a.23.23 0 00.228-.23v-2.53h6.364v2.53c0 .127.102.23.227.23H25a.23.23 0 00.227-.23v-2.53h2.727v13.11z" fill="#fff"/><defs><linearGradient id="paint0_linear" x1="2" y1="19.5" x2="40" y2="20" gradientUnits="userSpaceOnUse"><stop offset=".054" stop-color="#A1C4FD"/><stop offset="1" stop-color="#85D4FD"/></linearGradient></defs></svg>