<svg width="25" height="29" fill="none" xmlns="http://www.w3.org/2000/svg"><path d="M23.625 7.568h-4.781v-.562a6.47 6.47 0 00-12.938 0v.562H1.125C.503 7.568 0 8.071 0 8.693v18.844c0 .622.503 1.125 1.125 1.125h22.5c.622 0 1.125-.503 1.125-1.125V8.693c0-.622-.503-1.125-1.125-1.125zM8.437 7.006a3.935 3.935 0 013.938-3.938 3.935 3.935 0 013.938 3.938v.562H8.438v-.562zM22.22 26.13H2.53V10.1h3.375v3.093c0 .155.127.282.282.282h1.968a.282.282 0 00.281-.282V10.1h7.876v3.093c0 .155.126.282.28.282h1.97a.282.282 0 00.28-.282V10.1h3.376v16.03z" fill="#3C4045"/></svg>