<svg width="17" height="14" fill="none" xmlns="http://www.w3.org/2000/svg"><path d="M1 1h5M1 7.03h3.5M1 13.06h11" stroke="#fff" stroke-width="1.5" stroke-linecap="round" stroke-linejoin="round"/><path d="M10.704 10.408c1.044 0 2.057-.35 2.88-.993L16.169 12l.831-.831-2.585-2.585a4.675 4.675 0 00.993-2.88A4.71 4.71 0 0010.704 1 4.71 4.71 0 006 5.704a4.71 4.71 0 004.704 4.704zm0-8.232a3.532 3.532 0 013.528 3.528 3.532 3.532 0 01-3.528 3.528 3.532 3.532 0 01-3.528-3.528 3.532 3.532 0 013.528-3.528z" fill="#fff"/></svg>