<svg width="27" height="27" fill="none" xmlns="http://www.w3.org/2000/svg"><path d="M13.117 5.703c-4.257 0-7.718 3.46-7.724 7.718 0 1.458.41 2.88 1.183 4.105l.181.292-.778 2.846 2.922-.767.28.17a7.698 7.698 0 003.93 1.077h.006c4.25 0 7.805-3.46 7.805-7.717 0-2.061-.89-4-2.348-5.458a7.658 7.658 0 00-5.457-2.266zm4.538 11.032c-.194.545-1.119 1.037-1.564 1.101-.738.111-1.311.053-2.781-.58-2.325-1.007-3.847-3.35-3.964-3.501-.118-.153-.949-1.26-.949-2.401 0-1.142.597-1.704.814-1.938a.845.845 0 01.62-.293c.153 0 .31 0 .446.006.14.006.333-.053.52.398.194.462.657 1.604.715 1.721.059.118.1.252.018.404-.445.89-.92.855-.68 1.265.896 1.54 1.792 2.073 3.157 2.758.234.117.369.1.503-.058.135-.153.58-.68.732-.908.152-.234.31-.193.521-.117.211.076 1.353.638 1.587.755.234.117.387.176.445.27.053.11.053.58-.14 1.118zm8.578-11.349a5 5 0 00-5-5H5a5 5 0 00-5 5V21.62a5 5 0 005 5h16.233a5 5 0 005-5V5.386zM13.111 22.708a9.277 9.277 0 01-4.439-1.13l-4.924 1.294 1.317-4.814a9.253 9.253 0 01-1.241-4.643c.006-5.118 4.169-9.281 9.287-9.281 2.482 0 4.813.966 6.57 2.723 1.75 1.756 2.805 4.087 2.805 6.57 0 5.117-4.258 9.28-9.375 9.28z" fill="#CBCBCB"/></svg>