<svg width="25" height="25" fill="none" xmlns="http://www.w3.org/2000/svg"><rect width="25" height="25" rx="6" fill="#B1CD00"/><path d="M19.37 6.25a8.91 8.91 0 00-6.336-2.617c-4.935 0-8.957 4.003-8.962 8.917 0 1.573.414 3.105 1.195 4.46L4 21.633l4.75-1.24a8.998 8.998 0 004.284 1.086h.004c4.937 0 8.957-4.003 8.962-8.921a8.85 8.85 0 00-2.63-6.308zm-6.336 13.719a7.452 7.452 0 01-3.793-1.035l-.27-.162-2.82.736.753-2.737-.176-.283a7.355 7.355 0 01-1.138-3.943c0-4.08 3.342-7.407 7.448-7.407a7.442 7.442 0 016.883 4.577c.373.9.565 1.864.562 2.838-.004 4.094-3.346 7.416-7.45 7.416zm4.085-5.55c-.223-.112-1.322-.651-1.529-.728-.206-.073-.356-.11-.503.112-.15.221-.58.727-.708.872-.13.15-.262.166-.486.056-.223-.113-.945-.347-1.8-1.108-.666-.59-1.113-1.322-1.246-1.544-.129-.222-.012-.342.1-.453.098-.099.222-.261.334-.39.113-.128.15-.222.224-.37.073-.151.038-.28-.017-.39-.057-.112-.503-1.211-.692-1.655-.18-.437-.365-.377-.503-.382-.128-.008-.279-.008-.429-.008a.827.827 0 00-.598.278c-.205.223-.78.761-.78 1.86 0 1.1.802 2.156.915 2.306.11.15 1.575 2.398 3.823 3.366.53.23.949.367 1.276.47.536.171 1.021.145 1.408.09.43-.065 1.323-.54 1.512-1.06.185-.523.185-.968.129-1.062-.056-.094-.206-.15-.43-.26z" fill="#fff"/></svg>