<svg width="26" height="25" fill="none" xmlns="http://www.w3.org/2000/svg"><rect x=".5" width="25" height="25" rx="6" fill="#B1CD00"/><path d="M7.59 3.633a3.353 3.353 0 00-3.34 3.34v11.32a3.353 3.353 0 003.34 3.34h11.32a3.353 3.353 0 003.34-3.34V6.973a3.353 3.353 0 00-3.34-3.34H7.59zm0 1.636h11.32c.95 0 1.704.755 1.704 1.704v11.32c0 .95-.755 1.703-1.704 1.703H7.59a1.691 1.691 0 01-1.704-1.703V6.973c0-.95.755-1.704 1.704-1.704zm5.43 4.28c-.601-.006-1.113 0-1.4.14-.192.093-.338.304-.25.313.113.017.365.07.5.253.171.233.166.761.166.761s.096 1.45-.234 1.633c-.227.125-.537-.128-1.208-1.282-.342-.594-.6-1.25-.6-1.25s-.05-.121-.138-.185a.708.708 0 00-.26-.106l-1.6.01s-.24.01-.326.112c-.08.096-.007.284-.007.284s1.253 2.931 2.672 4.408c1.3 1.355 2.777 1.265 2.777 1.265h.671s.202-.022.304-.13c.097-.103.093-.295.093-.295s-.013-.898.403-1.032c.412-.128.936.87 1.495 1.253.426.29.748.227.748.227l1.497-.023s.78-.048.409-.665c-.029-.047-.215-.453-1.109-1.284-.94-.87-.815-.728.316-2.234.687-.917.962-1.477.875-1.72-.081-.226-.587-.166-.587-.166l-1.685.01s-.124-.016-.216.039a.471.471 0 00-.148.181s-.268.71-.623 1.314c-.748 1.272-1.051 1.342-1.173 1.263-.284-.186-.214-.743-.214-1.135 0-1.237.188-1.749-.364-1.882-.183-.045-.317-.074-.783-.078z" fill="#fff"/></svg>