<svg width="25" height="25" fill="none" xmlns="http://www.w3.org/2000/svg"><rect width="25" height="25" rx="6" fill="#B1CD00"/><path fill-rule="evenodd" clip-rule="evenodd" d="M9.04 3.687c.96-.044 1.265-.054 3.71-.054 2.445 0 2.75.01 3.71.054.959.043 1.613.196 2.186.418.6.227 1.144.58 1.594 1.039.458.45.811.992 1.037 1.593.223.573.375 1.227.419 2.185.044.96.054 1.267.054 3.71 0 2.446-.01 2.752-.054 3.711-.043.957-.196 1.612-.419 2.185a4.42 4.42 0 01-1.037 1.594c-.45.459-.994.812-1.594 1.038-.573.223-1.227.375-2.185.419-.96.044-1.266.054-3.711.054s-2.75-.01-3.71-.054c-.958-.044-1.612-.197-2.185-.42a4.415 4.415 0 01-1.595-1.037 4.41 4.41 0 01-1.038-1.593c-.222-.573-.374-1.228-.418-2.185-.044-.961-.054-1.267-.054-3.711 0-2.445.01-2.75.054-3.71.043-.959.196-1.613.418-2.186a4.41 4.41 0 011.04-1.594 4.393 4.393 0 011.592-1.038c.573-.222 1.227-.374 2.185-.418zm7.347 1.62c-.95-.044-1.234-.053-3.637-.053s-2.688.01-3.637.053c-.878.04-1.354.186-1.671.31-.42.164-.72.357-1.035.672a2.797 2.797 0 00-.673 1.035c-.123.318-.27.794-.31 1.672-.043.95-.052 1.234-.052 3.637s.009 2.688.052 3.637c.04.878.187 1.354.31 1.671.144.39.374.745.673 1.035.29.299.644.529 1.035.673.317.123.793.27 1.671.31.95.043 1.233.052 3.637.052s2.688-.009 3.637-.052c.878-.04 1.354-.187 1.671-.31.42-.164.72-.358 1.035-.673.299-.29.529-.645.673-1.035.124-.317.27-.793.31-1.671.043-.95.052-1.234.052-3.637s-.009-2.688-.052-3.637c-.04-.878-.186-1.354-.31-1.672a2.794 2.794 0 00-.673-1.035 2.794 2.794 0 00-1.035-.672c-.317-.124-.793-.27-1.671-.31zm-4.787 10.1a3.002 3.002 0 102.162-5.6 3.002 3.002 0 00-2.162 5.6zM9.48 9.362a4.626 4.626 0 116.542 6.541A4.626 4.626 0 019.48 9.362zm8.923-.666a1.094 1.094 0 10-1.501-1.592 1.094 1.094 0 001.501 1.592z" fill="#fff"/></svg>