<svg width="36px" height="32px" viewBox="0 0 36 32" version="1.1" xmlns="http://www.w3.org/2000/svg" xmlns:xlink="http://www.w3.org/1999/xlink">
    <!-- Generator: sketchtool 51.2 (57519) - http://www.bohemiancoding.com/sketch -->
    <title>171F33C0-0C2B-4F05-BA5F-999F22FD95C0</title>
    <desc>Created with sketchtool.</desc>
    <defs></defs>
    <g id="modals-2" stroke="none" stroke-width="1" fill="none" fill-rule="evenodd">
        <g id="chat-widget-settings-modal-2" transform="translate(-687.000000, -343.000000)" fill="#FFFFFF" fill-rule="nonzero">
            <g id="Group-16" transform="translate(379.000000, 50.000000)">
                <g id="Group-14">
                    <g id="speech-bubbles" transform="translate(308.000000, 293.000000)">
                        <path d="M15,0 C23.2843125,0 30,5.4348125 30,12.139 C30,18.8431875 23.2843125,24.278 15,24.278 C14.2044375,24.278 13.4235625,24.227375 12.6614375,24.1308125 C9.439375,27.34 5.7185625,27.9154375 2,28 L2,27.2145625 C4.007875,26.23475 5.625,24.450125 5.625,22.4104375 C5.625,22.125875 5.60275,21.8465 5.5615625,21.5731875 C2.169125,19.347625 0,15.9484375 0,12.139 C0,5.4348125 6.71575,0 15,0 Z M31.125,27.2089375 C31.125,28.95725 32.25975,30.487 34,31.3268125 L34,32 C30.777375,31.9275625 27.8191875,31.4343125 25.026875,28.683625 C24.36625,28.766375 23.689625,28.8099375 23,28.8099375 C20.016625,28.8099375 17.2685,28.005 15.0745625,26.652375 C19.5955625,26.6365 23.863875,25.188125 27.100625,22.568875 C28.7321875,21.2484375 30.0191875,19.69925 30.9260625,17.9641875 C31.8874375,16.124625 32.375,14.16475 32.375,12.139 C32.375,11.8125 32.3609375,11.487875 32.3356875,11.165 C34.6035,13.0379375 36,15.5906875 36,18.4049375 C36,21.6701875 34.120125,24.5836875 31.1800625,26.491375 C31.1443125,26.7255 31.125,26.965 31.125,27.2089375 Z" id="Shape"></path>
                    </g>
                </g>
            </g>
        </g>
    </g>
</svg>