<svg width="470px" height="470px" viewBox="0 0 470 470" version="1.1" xmlns="http://www.w3.org/2000/svg" xmlns:xlink="http://www.w3.org/1999/xlink">
    <title>chat white@2x</title>
    <g id="Page-1" stroke="none" stroke-width="1" fill="none" fill-rule="evenodd">
        <g id="chat-white" transform="translate(-0.000000, -0.000000)" fill="#FFFFFF" fill-rule="nonzero">
            <path d="M234.667316,0.000120453627 C150.34471,-0.0851632413 72.4726719,45.1219456 30.7339102,118.389845 C-11.0048515,191.657744 -10.1790087,281.69693 32.8966497,354.186908 L21.500383,445.354908 C20.7466809,451.425308 22.6331699,457.527391 26.6813151,462.113276 C30.7294603,466.699161 36.5503078,469.328227 42.6673164,469.33391 C44.413161,469.33391 46.1526199,469.12267 47.8449164,468.693575 L134.895583,446.933575 C166.068993,461.739169 200.156686,469.392281 234.667316,469.33391 C364.270138,469.33391 469.333983,364.269729 469.333983,234.666908 C469.333983,105.064087 364.270138,0.000120453627 234.667316,0.000120453627 Z M128.00065,256.000241 C116.218575,256.000241 106.667316,246.448983 106.667316,234.666908 C106.667316,222.884833 116.218575,213.333575 128.00065,213.333575 C139.782724,213.333575 149.333983,222.884833 149.333983,234.666908 C149.333983,246.448983 139.782724,256.000241 128.00065,256.000241 Z M234.667316,256.000241 C222.885242,256.000241 213.333983,246.448983 213.333983,234.666908 C213.333983,222.884833 222.885242,213.333575 234.667316,213.333575 C246.449391,213.333575 256.00065,222.884833 256.00065,234.666908 C256.00065,246.448983 246.449391,256.000241 234.667316,256.000241 Z M341.333983,256.000241 C329.551908,256.000241 320.00065,246.448983 320.00065,234.666908 C320.00065,222.884833 329.551908,213.333575 341.333983,213.333575 C353.116058,213.333575 362.667316,222.884833 362.667316,234.666908 C362.667316,246.448983 353.116058,256.000241 341.333983,256.000241 Z" id="Shape"></path>
        </g>
    </g>
</svg>