<svg width="30" height="19" fill="none" xmlns="http://www.w3.org/2000/svg"><path d="M29.863 9.427a8.951 8.951 0 01-8.959 8.958c-4.93 0-8.959-4.029-8.959-8.958 0-4.93 3.982-8.96 8.912-8.96 5.024 0 9.006 4.03 9.006 8.96z" fill="#FFB600"/><path d="M20.904.468c4.93 0 8.959 4.029 8.959 8.959s-3.982 8.958-8.959 8.958c-4.93 0-8.959-4.029-8.959-8.958" fill="#F7981D"/><path d="M20.904.468c4.93 0 8.96 4.029 8.96 8.959s-3.983 8.958-8.96 8.958" fill="#FF8500"/><path d="M8.864.468C3.982.515 0 4.497 0 9.427s3.982 8.958 8.959 8.958c2.322 0 4.408-.9 6.02-2.322.332-.285.616-.616.9-.948h-1.848a10.937 10.937 0 01-.664-.9h3.176c.19-.285.38-.617.521-.949h-4.218a5.65 5.65 0 01-.38-.948h4.93c.285-.9.474-1.849.474-2.844 0-.664-.095-1.28-.19-1.896h-5.498c.047-.332.142-.616.237-.948h4.93a5.65 5.65 0 00-.38-.948H12.8c.142-.332.331-.616.52-.948h3.177a4.508 4.508 0 00-.711-.948H14.03c.284-.332.569-.616.9-.9C13.366 1.416 11.233.563 8.91.563c0-.095 0-.095-.047-.095z" fill="#FF5050"/><path d="M0 9.427a8.951 8.951 0 008.959 8.958c2.322 0 4.408-.9 6.02-2.322.332-.285.616-.616.9-.948h-1.848a10.937 10.937 0 01-.664-.9h3.176c.19-.285.38-.617.521-.949h-4.218a5.65 5.65 0 01-.38-.948h4.93c.285-.9.474-1.849.474-2.844 0-.664-.095-1.28-.19-1.896h-5.498c.047-.332.142-.616.237-.948h4.93a5.65 5.65 0 00-.38-.948H12.8c.142-.332.331-.616.52-.948h3.177a4.508 4.508 0 00-.711-.948H14.03a8.08 8.08 0 01.9-.9C13.367 1.415 11.234.561 8.911.561h-.047" fill="#E52836"/><path d="M8.96 18.385c2.323 0 4.408-.9 6.02-2.322.332-.285.616-.616.9-.948h-1.848a10.96 10.96 0 01-.664-.9h3.176c.19-.285.38-.617.522-.949h-4.22a5.65 5.65 0 01-.378-.948h4.93c.284-.9.474-1.849.474-2.844 0-.664-.095-1.28-.19-1.896h-5.499c.048-.332.143-.616.237-.948h4.93a5.658 5.658 0 00-.38-.948H12.8c.142-.332.331-.616.52-.948h3.177a4.508 4.508 0 00-.711-.948h-1.754a8.08 8.08 0 01.9-.9C13.369 1.415 11.236.561 8.913.561h-.047" fill="#CB2026"/><path d="M12.134 11.703l.143-.806c-.048 0-.143.047-.237.047-.332 0-.38-.19-.332-.284L11.992 9h.522l.142-.9h-.474l.095-.569h-.948s-.57 3.129-.57 3.508c0 .569.333.806.76.806.284 0 .52-.095.615-.142zm.333-1.517c0 1.327.9 1.659 1.659 1.659.71 0 .995-.142.995-.142l.19-.9s-.521.236-.996.236c-1.042 0-.853-.758-.853-.758h1.944s.142-.616.142-.853c0-.617-.332-1.375-1.375-1.375-.995-.095-1.706.948-1.706 2.133zm1.659-1.375c.521 0 .427.617.427.664H13.51c0-.047.094-.664.616-.664zm6.02 2.891l.19-1.042s-.474.237-.806.237c-.664 0-.948-.522-.948-1.09 0-1.138.569-1.754 1.232-1.754.474 0 .854.284.854.284l.142-.995s-.57-.238-1.09-.238c-1.09 0-2.18.949-2.18 2.75 0 1.185.568 1.99 1.706 1.99.379 0 .9-.142.9-.142zM6.92 7.957c-.663 0-1.137.19-1.137.19l-.142.805s.426-.19 1.042-.19c.332 0 .617.048.617.333 0 .19-.048.237-.048.237h-.426c-.806 0-1.707.331-1.707 1.422 0 .853.569 1.043.9 1.043.664 0 .949-.427.996-.427l-.047.38h.853l.38-2.608c0-1.138-.949-1.185-1.28-1.185zm.19 2.133c0 .142-.095.9-.664.9-.284 0-.379-.236-.379-.379 0-.237.142-.568.853-.568.143.047.19.047.19.047zm1.992 1.707c.237 0 1.422.047 1.422-1.232 0-1.185-1.138-.948-1.138-1.422 0-.237.19-.332.522-.332.142 0 .663.047.663.047l.143-.853s-.332-.095-.901-.095c-.711 0-1.422.285-1.422 1.233 0 1.09 1.185.995 1.185 1.422 0 .284-.332.331-.569.331-.426 0-.853-.142-.853-.142l-.142.853c.047.095.284.19 1.09.19zM28.014 7.2l-.19 1.28s-.378-.475-.9-.475c-.853 0-1.611 1.043-1.611 2.275 0 .759.379 1.565 1.184 1.565.57 0 .901-.38.901-.38l-.047.332h.948l.71-4.55-.995-.048zm-.426 2.511c0 .522-.237 1.185-.759 1.185-.332 0-.521-.284-.521-.758 0-.758.332-1.232.758-1.232.332 0 .522.237.522.805zM1.754 11.75l.569-3.413.095 3.413h.663l1.233-3.413-.522 3.413h.996l.758-4.55H3.982l-.948 2.796-.047-2.797H1.612l-.758 4.55h.9zm14.693-.001c.285-1.564.332-2.844.995-2.607.095-.616.238-.853.332-1.09h-.19c-.426 0-.758.569-.758.569l.095-.522h-.9l-.617 3.697h1.043v-.047zm5.88-3.792c-.664 0-1.138.19-1.138.19l-.142.805s.426-.19 1.043-.19c.331 0 .616.048.616.333 0 .19-.048.237-.048.237h-.426c-.806 0-1.707.331-1.707 1.422 0 .853.57 1.043.901 1.043.664 0 .948-.427.995-.427l-.047.38h.853l.38-2.608c.047-1.138-.949-1.185-1.28-1.185zm.237 2.133c0 .142-.095.9-.664.9-.284 0-.38-.236-.38-.379 0-.237.143-.568.854-.568.142.047.142.047.19.047zm1.848 1.659c.284-1.564.332-2.844.995-2.607.095-.616.237-.853.332-1.09h-.19c-.426 0-.758.569-.758.569l.095-.522h-.9l-.617 3.697h1.043v-.047z" fill="#fff"/><path d="M10.666 11.039c0 .569.332.806.758.806.332 0 .617-.095.712-.142l.142-.806c-.048 0-.143.047-.237.047-.332 0-.38-.19-.332-.284L11.993 9h.522l.142-.9h-.474l.095-.569m.662 2.655c0 1.327.426 1.659 1.184 1.659.711 0 .996-.142.996-.142l.19-.9s-.522.236-.996.236c-1.043 0-.853-.758-.853-.758h1.943s.143-.616.143-.853c0-.617-.332-1.375-1.375-1.375-.995-.095-1.232.948-1.232 2.133zm1.184-1.375c.522 0 .617.617.617.664h-1.233c0-.047.095-.664.617-.664zm6.023 2.891l.19-1.042s-.475.237-.806.237c-.664 0-.948-.522-.948-1.09 0-1.138.568-1.754 1.232-1.754.474 0 .853.284.853.284l.142-.995s-.569-.238-1.09-.238c-1.09 0-1.706.949-1.706 2.75 0 1.185.095 1.99 1.232 1.99.38 0 .9-.142.9-.142zM5.64 9s.427-.189 1.043-.189c.332 0 .617.048.617.332 0 .19-.048.237-.048.237h-.426c-.806 0-1.707.332-1.707 1.422 0 .853.569 1.043.9 1.043.664 0 .949-.427.996-.427l-.047.38h.853l.38-2.608c0-1.09-.949-1.137-1.328-1.137L5.641 9zm1.944 1.091c0 .142-.569.9-1.138.9-.284 0-.379-.236-.379-.379 0-.237.142-.568.853-.568.143.047.664.047.664.047zm.475 1.611s.284.095 1.09.095c.237 0 1.422.047 1.422-1.232 0-1.185-1.138-.948-1.138-1.422 0-.237.19-.332.522-.332.142 0 .663.047.663.047l.143-.853s-.332-.095-.901-.095c-.711 0-.948.285-.948 1.233 0 1.09.71.995.71 1.422 0 .284-.331.331-.568.331m18.773-2.417s-.38-.474-.9-.474c-.854 0-1.138 1.042-1.138 2.275 0 .758-.095 1.564.71 1.564.57 0 .901-.38.901-.38l-.047.333h.948l.71-4.55-1.184 1.232zm-.048 1.232c0 .521-.426 1.185-.948 1.185-.331 0-.521-.284-.521-.758 0-.759.332-1.233.758-1.233.332 0 .711.237.711.806zM1.754 11.75l.569-3.413.095 3.413h.663l1.233-3.413-.522 3.413h.996l.758-4.55H4.361L3.034 9.995l-.047-2.797h-.522L.854 11.75h.9zm13.699-.001h.996c.284-1.564.331-2.844.995-2.607.095-.616.237-.853.332-1.09h-.19c-.426 0-.758.569-.758.569l.095-.522M21.047 9s.426-.189 1.043-.189c.331 0 .616.048.616.332 0 .19-.048.237-.048.237h-.426c-.806 0-1.707.332-1.707 1.422 0 .853.57 1.043.901 1.043.664 0 .948-.427.995-.427l-.047.38h.853l.38-2.608c0-1.09-.949-1.137-1.328-1.137L21.047 9zm1.943 1.091c0 .142-.569.9-1.137.9-.285 0-.38-.236-.38-.379 0-.237.143-.568.854-.568.19.047.663.047.663.047zm.428 1.658h.995c.285-1.564.332-2.844.996-2.607.095-.616.237-.853.332-1.09h-.19c-.427 0-.758.569-.758.569l.094-.522" fill="#DCE5E5"/></svg>