<svg width="46" height="14" fill="none" xmlns="http://www.w3.org/2000/svg"><g clip-path="url(#clip0)" fill-rule="evenodd" clip-rule="evenodd"><path d="M12.597.113V.12c-.005 0-1.76-.006-2.229 1.715-.43 1.578-1.639 5.934-1.672 6.054h-.334S7.124 3.434 6.69 1.828C6.22.108 4.46.113 4.46.113H.447v13.09H4.46V5.43h.335l2.34 7.774h2.787l2.341-7.769h.334v7.769h4.013V.114h-4.013zm14.659 0s-1.177.109-1.728 1.372l-2.843 6.403h-.334V.113h-4.013v13.09h3.79s1.232-.114 1.783-1.371l2.787-6.403h.334v7.775h4.013V.114h-3.79zm5.572 5.946v7.145h4.013V9.031h4.347c1.895 0 3.5-1.24 4.097-2.972H32.828z" fill="#4DB45E"/><path d="M41.189.113h-8.923c.446 2.493 2.268 4.493 4.626 5.145a6.262 6.262 0 001.677.229h6.878c.061-.298.09-.6.09-.915 0-2.464-1.946-4.459-4.348-4.459z" fill="url(#paint0_linear)"/></g><defs><linearGradient id="paint0_linear" x1="32.267" y1="2.8" x2="45.536" y2="2.8" gradientUnits="userSpaceOnUse"><stop offset=".3" stop-color="#00B4E6"/><stop offset="1" stop-color="#088CCB"/></linearGradient><clipPath id="clip0"><path fill="#fff" transform="translate(.447 .113)" d="M0 0h45.089v13.091H0z"/></clipPath></defs></svg>