<svg width="43" height="15" fill="none" xmlns="http://www.w3.org/2000/svg"><path d="M17.405.912l-2.131 13.264h3.407L20.81.912h-3.406zm10.277 5.403c-1.19-.588-1.92-.985-1.92-1.586.014-.547.617-1.107 1.963-1.107a5.929 5.929 0 012.537.491l.31.138.463-2.775A8.599 8.599 0 0027.977.93c-3.365 0-5.734 1.75-5.749 4.252-.027 1.846 1.697 2.87 2.987 3.485 1.318.63 1.766 1.04 1.766 1.6-.014.86-1.065 1.256-2.046 1.256-1.36 0-2.09-.204-3.197-.684l-.45-.204-.476 2.884c.8.356 2.273.67 3.8.685 3.576 0 5.903-1.723 5.932-4.389.011-1.463-.898-2.583-2.862-3.499zM39.77.953h-2.636c-.812 0-1.43.234-1.781 1.067l-5.06 12.156h3.575l.985-2.631h4l.51 2.642h3.154L39.77.953zM35.843 8.89c.07.006 1.372-4.297 1.372-4.297l1.038 4.297h-2.41zM12.427.912L9.089 9.924l-.364-1.777c-.617-2.05-2.552-4.28-4.711-5.386L7.07 14.163h3.605L16.032.913h-3.605z" fill="#2394BC"/><path d="M7.602 2.62C7.342 1.61 6.512.927 5.386.912H.099l-.054.246C4.169 2.174 7.63 5.302 8.753 8.245L7.603 2.62z" fill="#EFC75E"/></svg>