<svg width="28" height="27" fill="none" xmlns="http://www.w3.org/2000/svg"><path d="M27.177 6.07a8.7 8.7 0 00-1.834-2.765 8.507 8.507 0 00-2.709-1.853 8.389 8.389 0 00-8.708 1.296 8.389 8.389 0 00-11.416.558A8.645 8.645 0 00.678 6.07 8.825 8.825 0 000 9.472c0 1.112.22 2.27.654 3.45.365.985.887 2.006 1.554 3.038 1.058 1.633 2.512 3.336 4.317 5.062 2.992 2.861 5.954 4.838 6.08 4.918l.764.508c.339.223.774.223 1.112 0l.764-.508c.126-.083 3.086-2.057 6.08-4.918 1.806-1.726 3.26-3.43 4.317-5.062.668-1.032 1.193-2.053 1.554-3.038.435-1.18.655-2.338.655-3.45a8.764 8.764 0 00-.674-3.402zm-13.25 17.737S2.45 16.19 2.45 9.472c0-3.402 2.718-6.16 6.07-6.16 2.357 0 4.401 1.362 5.407 3.352 1.006-1.99 3.05-3.352 5.406-3.352 3.353 0 6.07 2.758 6.07 6.16 0 6.718-11.476 14.335-11.476 14.335z" fill="#3C4045"/></svg>