<svg width="22" height="29" viewBox="0 0 22 29" fill="none" xmlns="http://www.w3.org/2000/svg">
<path d="M10.7537 3.36976C11.6688 3.36976 12.5634 3.64114 13.3243 4.14956C14.0852 4.65799 14.6783 5.38064 15.0285 6.22612C15.3787 7.0716 15.4703 8.00195 15.2918 8.89951C15.1133 9.79707 14.6726 10.6215 14.0255 11.2686C13.3784 11.9157 12.5539 12.3564 11.6563 12.535C10.7588 12.7135 9.82844 12.6219 8.98296 12.2717C8.13748 11.9214 7.41483 11.3284 6.9064 10.5675C6.39798 9.80655 6.1266 8.91196 6.1266 7.99681C6.1266 6.76964 6.6141 5.59274 7.48184 4.725C8.34958 3.85726 9.52648 3.36976 10.7537 3.36976ZM10.7537 0.918945C9.35378 0.918945 7.98535 1.33406 6.8214 2.11178C5.65745 2.88951 4.75026 3.99492 4.21455 5.28823C3.67885 6.58154 3.53868 8.00467 3.81178 9.37764C4.08488 10.7506 4.75899 12.0118 5.74884 13.0016C6.7387 13.9915 7.99986 14.6656 9.37283 14.9387C10.7458 15.2118 12.1689 15.0716 13.4622 14.5359C14.7555 14.0002 15.861 13.093 16.6387 11.9291C17.4164 10.7651 17.8315 9.39668 17.8315 7.99681C17.8315 6.11965 17.0858 4.31936 15.7585 2.992C14.4311 1.66465 12.6308 0.918945 10.7537 0.918945Z" fill="#3C4045" stroke="#3C4045" stroke-width="0.5"/>
<path d="M20.5082 28.7303H20.7582V28.4803V23.6033C20.7582 21.7261 20.0125 19.9258 18.6851 18.5985C17.3578 17.2711 15.5575 16.5254 13.6803 16.5254H7.82787C5.9507 16.5254 4.15042 17.2711 2.82306 18.5985C1.4957 19.9258 0.75 21.7261 0.75 23.6033V28.4803V28.7303H1H2.95082H3.20082V28.4803V23.6033C3.20082 22.3761 3.68831 21.1992 4.55605 20.3314C5.42379 19.4637 6.6007 18.9762 7.82787 18.9762H13.6803C14.9075 18.9762 16.0844 19.4637 16.9521 20.3314C17.8199 21.1992 18.3074 22.3761 18.3074 23.6033V28.4803V28.7303H18.5574H20.5082Z" fill="#3C4045" stroke="#3C4045" stroke-width="0.5"/>
</svg>
