<svg width="40" height="40" viewBox="0 0 40 40" fill="none" xmlns="http://www.w3.org/2000/svg">
<path d="M40 20C40 31.0457 31.0457 40 20 40C8.9543 40 0 31.0457 0 20C0 8.9543 8.9543 0 20 0C31.0457 0 40 8.9543 40 20Z" fill="url(#paint0_linear)"/>
<path d="M29.0909 12.75H25.2273V12.29C25.2273 9.369 22.8864 7 20 7C17.1136 7 14.7727 9.369 14.7727 12.29V12.75H10.9091C10.4062 12.75 10 13.1611 10 13.67V29.08C10 29.5889 10.4062 30 10.9091 30H29.0909C29.5938 30 30 29.5889 30 29.08V13.67C30 13.1611 29.5938 12.75 29.0909 12.75ZM16.8182 12.29C16.8182 10.5104 18.2415 9.07 20 9.07C21.7585 9.07 23.1818 10.5104 23.1818 12.29V12.75H16.8182V12.29ZM27.9545 27.93H12.0455V14.82H14.7727V17.35C14.7727 17.4765 14.875 17.58 15 17.58H16.5909C16.7159 17.58 16.8182 17.4765 16.8182 17.35V14.82H23.1818V17.35C23.1818 17.4765 23.2841 17.58 23.4091 17.58H25C25.125 17.58 25.2273 17.4765 25.2273 17.35V14.82H27.9545V27.93Z" fill="white"/>
<defs>
<linearGradient id="paint0_linear" x1="2" y1="19.5" x2="40" y2="20" gradientUnits="userSpaceOnUse">
<stop offset="0.0540198" stop-color="#A1C4FD"/>
<stop offset="1" stop-color="#85D4FD"/>
</linearGradient>
</defs>
</svg>
