<svg width="134" height="19" fill="none" xmlns="http://www.w3.org/2000/svg"><path d="M29.863 9.427a8.951 8.951 0 01-8.959 8.958c-4.93 0-8.959-4.029-8.959-8.958 0-4.93 3.982-8.96 8.912-8.96 5.024 0 9.006 4.03 9.006 8.96z" fill="#FFB600"/><path d="M20.904.468c4.93 0 8.959 4.029 8.959 8.959s-3.982 8.958-8.959 8.958c-4.93 0-8.959-4.029-8.959-8.958" fill="#F7981D"/><path d="M20.904.468c4.93 0 8.96 4.029 8.96 8.959s-3.983 8.958-8.96 8.958" fill="#FF8500"/><path d="M8.864.468C3.982.515 0 4.497 0 9.427s3.982 8.958 8.959 8.958c2.322 0 4.408-.9 6.02-2.322.332-.285.616-.616.9-.948h-1.848a10.937 10.937 0 01-.664-.9h3.176c.19-.285.38-.617.521-.949h-4.218a5.65 5.65 0 01-.38-.948h4.93c.285-.9.474-1.849.474-2.844 0-.664-.095-1.28-.19-1.896h-5.498c.047-.332.142-.616.237-.948h4.93a5.65 5.65 0 00-.38-.948H12.8c.142-.332.331-.616.52-.948h3.177a4.508 4.508 0 00-.711-.948H14.03c.284-.332.569-.616.9-.9C13.366 1.416 11.233.563 8.91.563c0-.095 0-.095-.047-.095z" fill="#FF5050"/><path d="M0 9.427a8.951 8.951 0 008.959 8.958c2.322 0 4.408-.9 6.02-2.322.332-.285.616-.616.9-.948h-1.848a10.937 10.937 0 01-.664-.9h3.176c.19-.285.38-.617.521-.949h-4.218a5.65 5.65 0 01-.38-.948h4.93c.285-.9.474-1.849.474-2.844 0-.664-.095-1.28-.19-1.896h-5.498c.047-.332.142-.616.237-.948h4.93a5.65 5.65 0 00-.38-.948H12.8c.142-.332.331-.616.52-.948h3.177a4.508 4.508 0 00-.711-.948H14.03a8.08 8.08 0 01.9-.9C13.367 1.415 11.234.561 8.911.561h-.047" fill="#E52836"/><path d="M8.96 18.385c2.323 0 4.408-.9 6.02-2.322.332-.285.616-.616.9-.948h-1.848a10.96 10.96 0 01-.664-.9h3.176c.19-.285.38-.617.522-.949h-4.22a5.65 5.65 0 01-.378-.948h4.93c.284-.9.474-1.849.474-2.844 0-.664-.095-1.28-.19-1.896h-5.499c.048-.332.143-.616.237-.948h4.93a5.658 5.658 0 00-.38-.948H12.8c.142-.332.331-.616.52-.948h3.177a4.508 4.508 0 00-.711-.948h-1.754a8.08 8.08 0 01.9-.9C13.369 1.415 11.236.561 8.913.561h-.047" fill="#CB2026"/><path d="M12.134 11.702l.143-.806c-.048 0-.143.048-.237.048-.332 0-.38-.19-.332-.285L11.992 9h.522l.142-.9h-.474l.095-.57h-.948s-.57 3.13-.57 3.509c0 .568.333.805.76.805.284 0 .52-.095.615-.142zm.333-1.517c0 1.328.9 1.66 1.659 1.66.71 0 .995-.143.995-.143l.19-.9s-.521.237-.996.237c-1.042 0-.853-.759-.853-.759h1.944s.142-.616.142-.853c0-.616-.332-1.375-1.375-1.375-.995-.094-1.706.948-1.706 2.133zm1.659-1.374c.521 0 .427.616.427.663H13.51c0-.047.094-.663.616-.663zm6.022 2.891l.19-1.043s-.474.237-.806.237c-.664 0-.948-.521-.948-1.09 0-1.138.569-1.754 1.232-1.754.474 0 .854.284.854.284l.142-.995s-.57-.237-1.09-.237c-1.09 0-2.181.948-2.181 2.75 0 1.184.569 1.99 1.706 1.99.38 0 .901-.142.901-.142zM6.92 7.957c-.663 0-1.137.19-1.137.19l-.142.805s.426-.19 1.042-.19c.332 0 .617.048.617.333 0 .19-.048.237-.048.237h-.426c-.806 0-1.707.331-1.707 1.422 0 .853.569 1.043.9 1.043.664 0 .949-.427.996-.427l-.047.38h.853l.38-2.608c0-1.138-.949-1.185-1.28-1.185zm.19 2.133c0 .142-.095.9-.664.9-.284 0-.379-.236-.379-.379 0-.237.142-.568.853-.568.143.047.19.047.19.047zm1.992 1.707c.237 0 1.422.047 1.422-1.232 0-1.185-1.138-.948-1.138-1.422 0-.237.19-.332.522-.332.142 0 .663.047.663.047l.143-.853s-.332-.095-.901-.095c-.711 0-1.422.285-1.422 1.233 0 1.09 1.185.995 1.185 1.422 0 .284-.332.331-.569.331-.426 0-.853-.142-.853-.142l-.142.853c.047.095.284.19 1.09.19zm18.912-4.598l-.19 1.28s-.378-.474-.9-.474c-.853 0-1.611 1.042-1.611 2.275 0 .758.379 1.564 1.184 1.564.57 0 .901-.38.901-.38l-.047.333h.948l.71-4.55-.995-.048zm-.426 2.512c0 .521-.237 1.185-.759 1.185-.332 0-.521-.284-.521-.758 0-.759.332-1.233.758-1.233.332 0 .522.237.522.806zM1.754 11.75l.569-3.414.095 3.413h.663l1.233-3.413-.522 3.413h.996l.758-4.55H3.982l-.948 2.796L2.987 7.2H1.612l-.758 4.55h.9zm14.693-.001c.285-1.564.332-2.844.995-2.607.095-.616.238-.853.332-1.09h-.19c-.426 0-.758.569-.758.569l.095-.522h-.9l-.617 3.697h1.043v-.047zm5.88-3.792c-.664 0-1.138.19-1.138.19l-.142.805s.426-.19 1.043-.19c.331 0 .616.048.616.333 0 .19-.048.237-.048.237h-.426c-.806 0-1.707.331-1.707 1.422 0 .853.57 1.043.901 1.043.664 0 .948-.427.995-.427l-.047.38h.853l.38-2.608c.047-1.138-.949-1.185-1.28-1.185zm.237 2.133c0 .142-.095.9-.664.9-.284 0-.38-.236-.38-.379 0-.237.143-.568.854-.568.142.047.142.047.19.047zm1.848 1.659c.284-1.564.332-2.844.995-2.607.095-.616.237-.853.332-1.09h-.19c-.426 0-.758.569-.758.569l.095-.522h-.9l-.617 3.697h1.043v-.047z" fill="#fff"/><path d="M10.666 11.039c0 .568.332.805.758.805.332 0 .617-.095.712-.142l.142-.806c-.048 0-.143.048-.237.048-.332 0-.38-.19-.332-.285L11.993 9h.522l.142-.9h-.474l.095-.57m.662 2.655c0 1.328.426 1.66 1.184 1.66.711 0 .996-.143.996-.143l.19-.9s-.522.237-.996.237c-1.043 0-.853-.759-.853-.759h1.943s.143-.616.143-.853c0-.616-.332-1.375-1.375-1.375-.995-.094-1.232.948-1.232 2.133zm1.184-1.374c.522 0 .617.616.617.663h-1.233c0-.047.095-.663.617-.663zm6.023 2.891l.19-1.043s-.475.237-.806.237c-.664 0-.948-.521-.948-1.09 0-1.138.568-1.754 1.232-1.754.474 0 .853.284.853.284l.142-.995s-.569-.237-1.09-.237c-1.09 0-1.706.948-1.706 2.75 0 1.184.095 1.99 1.232 1.99.38 0 .9-.142.9-.142zM5.64 9s.427-.19 1.043-.19c.332 0 .617.048.617.332 0 .19-.048.237-.048.237h-.426c-.806 0-1.707.332-1.707 1.423 0 .853.569 1.042.9 1.042.664 0 .949-.426.996-.426l-.047.379h.853l.38-2.607c0-1.09-.949-1.138-1.328-1.138L5.641 9zm1.944 1.09c0 .143-.569.901-1.138.901-.284 0-.379-.237-.379-.38 0-.236.142-.568.853-.568.143.048.664.048.664.048zm.475 1.612s.284.095 1.09.095c.237 0 1.422.047 1.422-1.232 0-1.185-1.138-.948-1.138-1.422 0-.237.19-.332.522-.332.142 0 .663.047.663.047l.143-.853s-.332-.095-.901-.095c-.711 0-.948.285-.948 1.233 0 1.09.71.995.71 1.422 0 .284-.331.331-.568.331m18.773-2.417s-.38-.474-.9-.474c-.854 0-1.138 1.042-1.138 2.275 0 .758-.095 1.564.71 1.564.57 0 .901-.38.901-.38l-.047.333h.948l.71-4.55-1.184 1.232zm-.048 1.232c0 .521-.426 1.185-.948 1.185-.331 0-.521-.284-.521-.758 0-.759.332-1.233.758-1.233.332 0 .711.237.711.806zM1.754 11.75l.569-3.414.095 3.413h.663l1.233-3.413-.522 3.413h.996l.758-4.55H4.361L3.034 9.995 2.987 7.2h-.522L.854 11.75h.9zm13.699-.001h.996c.284-1.564.331-2.844.995-2.607.095-.616.237-.853.332-1.09h-.19c-.426 0-.758.569-.758.569l.095-.522M21.047 9s.426-.19 1.043-.19c.331 0 .616.048.616.332 0 .19-.048.237-.048.237h-.426c-.806 0-1.707.332-1.707 1.423 0 .853.57 1.042.901 1.042.664 0 .948-.426.995-.426l-.047.379h.853l.38-2.607c0-1.09-.949-1.138-1.328-1.138L21.047 9zm1.943 1.09c0 .143-.569.901-1.137.901-.285 0-.38-.237-.38-.38 0-.236.143-.568.854-.568.19.048.663.048.663.048zm.428 1.659h.995c.285-1.564.332-2.844.996-2.607.095-.616.237-.853.332-1.09h-.19c-.427 0-.758.569-.758.569l.094-.522" fill="#DCE5E5"/><path d="M54.405 2.913l-2.131 13.264h3.407l2.13-13.264h-3.406zm10.277 5.403c-1.19-.588-1.92-.985-1.92-1.586.014-.547.617-1.107 1.963-1.107a5.929 5.929 0 012.537.49l.31.139.463-2.775a8.599 8.599 0 00-3.058-.547c-3.365 0-5.734 1.75-5.749 4.251-.027 1.846 1.697 2.87 2.987 3.485 1.318.63 1.766 1.04 1.766 1.6-.014.86-1.065 1.257-2.046 1.257-1.36 0-2.09-.205-3.197-.684l-.45-.204-.475 2.884c.8.355 2.272.669 3.8.685 3.575 0 5.901-1.723 5.93-4.39.012-1.462-.897-2.582-2.86-3.498zM76.77 2.954h-2.636c-.812 0-1.43.233-1.781 1.067l-5.06 12.156h3.575l.984-2.632h4l.512 2.643h3.153L76.77 2.954zm-3.926 7.935c.07.007 1.373-4.296 1.373-4.296l1.037 4.296h-2.41zM49.427 2.913l-3.338 9.011-.364-1.777c-.617-2.05-2.552-4.279-4.711-5.386l3.056 11.403h3.605l5.357-13.25h-3.605v-.001z" fill="#2394BC"/><path d="M44.602 4.621c-.26-1.011-1.09-1.693-2.216-1.708h-5.287l-.054.246c4.124 1.016 7.585 4.144 8.708 7.087l-1.15-5.625z" fill="#EFC75E"/><g clip-path="url(#clip0)" fill-rule="evenodd" clip-rule="evenodd"><path d="M100.597 3.113v.006c-.005 0-1.76-.006-2.229 1.715-.43 1.578-1.638 5.934-1.672 6.053h-.334s-1.238-4.453-1.672-6.059c-.469-1.72-2.23-1.715-2.23-1.715h-4.013v13.09h4.013V8.43h.335l2.34 7.774h2.787l2.341-7.769h.334v7.769h4.013V3.114h-4.013zm14.658 0s-1.176.109-1.727 1.372l-2.843 6.402h-.334V3.113h-4.013v13.09h3.79s1.232-.114 1.783-1.371l2.787-6.402h.335v7.774h4.012V3.114h-3.79zm5.573 5.946v7.145h4.013v-4.173h4.347c1.895 0 3.5-1.24 4.097-2.972h-12.457z" fill="#4DB45E"/><path d="M129.189 3.113h-8.923c.446 2.493 2.268 4.493 4.626 5.145a6.26 6.26 0 001.677.229h6.878c.061-.298.089-.6.089-.915 0-2.464-1.945-4.459-4.347-4.459z" fill="url(#paint0_linear)"/></g><defs><linearGradient id="paint0_linear" x1="120.267" y1="5.8" x2="133.536" y2="5.8" gradientUnits="userSpaceOnUse"><stop offset=".3" stop-color="#00B4E6"/><stop offset="1" stop-color="#088CCB"/></linearGradient><clipPath id="clip0"><path fill="#fff" transform="translate(88.447 3.113)" d="M0 0h45.089v13.091H0z"/></clipPath></defs></svg>