<svg width="25" height="29" viewBox="0 0 25 29" fill="none" xmlns="http://www.w3.org/2000/svg">
<path d="M23.625 7.56836H18.8438V7.00586C18.8438 3.43398 15.9469 0.537109 12.375 0.537109C8.80313 0.537109 5.90625 3.43398 5.90625 7.00586V7.56836H1.125C0.502734 7.56836 0 8.07109 0 8.69336V27.5371C0 28.1594 0.502734 28.6621 1.125 28.6621H23.625C24.2473 28.6621 24.75 28.1594 24.75 27.5371V8.69336C24.75 8.07109 24.2473 7.56836 23.625 7.56836ZM8.4375 7.00586C8.4375 4.82969 10.1988 3.06836 12.375 3.06836C14.5512 3.06836 16.3125 4.82969 16.3125 7.00586V7.56836H8.4375V7.00586ZM22.2188 26.1309H2.53125V10.0996H5.90625V13.1934C5.90625 13.348 6.03281 13.4746 6.1875 13.4746H8.15625C8.31094 13.4746 8.4375 13.348 8.4375 13.1934V10.0996H16.3125V13.1934C16.3125 13.348 16.4391 13.4746 16.5938 13.4746H18.5625C18.7172 13.4746 18.8438 13.348 18.8438 13.1934V10.0996H22.2188V26.1309Z" fill="#3C4045"/>
</svg>
