<svg width="17" height="14" viewBox="0 0 17 14" fill="none" xmlns="http://www.w3.org/2000/svg">
<path d="M1 1H6M1 7.03012H4.5M1 13.0602H12" stroke="white" stroke-width="1.5" stroke-linecap="round" stroke-linejoin="round"/>
<path d="M10.7041 10.4077C11.7478 10.4075 12.7615 10.0581 13.5836 9.41522L16.1685 12L17 11.1686L14.4151 8.58381C15.0584 7.76162 15.408 6.7478 15.4082 5.70387C15.4082 3.11027 13.2979 1 10.7041 1C8.11039 1 6 3.11027 6 5.70387C6 8.29747 8.11039 10.4077 10.7041 10.4077ZM10.7041 2.17597C12.6499 2.17597 14.2322 3.75823 14.2322 5.70387C14.2322 7.64951 12.6499 9.23177 10.7041 9.23177C8.75838 9.23177 7.17603 7.64951 7.17603 5.70387C7.17603 3.75823 8.75838 2.17597 10.7041 2.17597Z" fill="white"/>
</svg>
