<svg width="27" height="27" fill="none" xmlns="http://www.w3.org/2000/svg"><path d="M26.656 5.386a5 5 0 00-5-5H5.5a5 5 0 00-5 5V21.54a5 5 0 005 5h16.156a5 5 0 005-5V5.386zm-5.04 13.658h-1.9c-.719 0-.94-.57-2.234-1.882-1.124-1.09-1.622-1.234-1.899-1.234-.391 0-.502.11-.502.648v1.715c0 .46-.145.737-1.363.737-2.014 0-4.249-1.218-5.815-3.487-2.363-3.325-3.01-5.816-3.01-6.33 0-.278.11-.537.643-.537h1.902c.482 0 .665.222.852.737.94 2.716 2.508 5.095 3.154 5.095.239 0 .35-.11.35-.72v-2.804c-.074-1.294-.754-1.405-.754-1.865 0-.221.183-.443.476-.443h2.992c.405 0 .554.222.554.698v3.785c0 .408.183.553.293.553.239 0 .443-.145.885-.588 1.367-1.532 2.346-3.895 2.346-3.895.128-.277.35-.536.83-.536h1.903c.57 0 .698.293.57.702-.238 1.106-2.566 4.393-2.566 4.393-.2.332-.278.476 0 .847.204.277.868.851 1.31 1.366.814.924 1.439 1.699 1.606 2.235.187.532-.09.81-.626.81h.002z" fill="#CBCBCB"/></svg>