<svg width="166" height="19" viewBox="0 0 166 19" fill="none" xmlns="http://www.w3.org/2000/svg">
<path d="M8.25 18.5488C8.25 18.5488 16.5 11.957 16.5 6.95581C16.5 5.11101 15.6308 3.34178 14.0836 2.03731C12.5365 0.732842 10.438 0 8.25 0C6.06196 0 3.96354 0.732842 2.41637 2.03731C0.869194 3.34178 3.26043e-08 5.11101 0 6.95581C0 11.957 8.25 18.5488 8.25 18.5488ZM8.25 10.4337C7.15598 10.4337 6.10677 10.0673 5.33318 9.41506C4.5596 8.76283 4.125 7.87821 4.125 6.95581C4.125 6.03341 4.5596 5.14879 5.33318 4.49656C6.10677 3.84433 7.15598 3.47791 8.25 3.47791C9.34402 3.47791 10.3932 3.84433 11.1668 4.49656C11.9404 5.14879 12.375 6.03341 12.375 6.95581C12.375 7.87821 11.9404 8.76283 11.1668 9.41506C10.3932 10.0673 9.34402 10.4337 8.25 10.4337Z" fill="#A0A0A0"/>
<path d="M34.2777 11.544H36.2937C36.1017 12.6533 35.595 13.544 34.7737 14.216C33.9524 14.8773 32.907 15.208 31.6377 15.208C29.9524 15.208 28.635 14.664 27.6857 13.576C26.7364 12.4773 26.2617 11.048 26.2617 9.288C26.2617 7.528 26.7364 6.104 27.6857 5.016C28.6457 3.91733 29.9684 3.368 31.6537 3.368C32.859 3.368 33.8564 3.672 34.6457 4.28C35.4457 4.888 35.9524 5.70933 36.1657 6.744H34.1497C33.787 5.656 32.955 5.112 31.6537 5.112C30.5337 5.112 29.6804 5.50667 29.0937 6.296C28.507 7.08533 28.2137 8.08267 28.2137 9.288C28.2137 10.4933 28.5017 11.4907 29.0777 12.28C29.6644 13.0693 30.5177 13.464 31.6377 13.464C32.3417 13.464 32.9177 13.2987 33.3657 12.968C33.8244 12.6267 34.1284 12.152 34.2777 11.544ZM43.4063 15V14.248H43.0223C42.5103 14.888 41.7103 15.208 40.6223 15.208C39.7263 15.208 39.017 14.952 38.4943 14.44C37.9716 13.9173 37.7103 13.2827 37.7103 12.536C37.7103 11.8 37.977 11.16 38.5103 10.616C39.0436 10.072 39.8543 9.8 40.9423 9.8H43.3423V9.56C43.3423 8.568 42.7716 8.072 41.6303 8.072C40.617 8.072 40.073 8.41867 39.9983 9.112H38.2063C38.249 8.35467 38.5743 7.75733 39.1823 7.32C39.801 6.872 40.5956 6.648 41.5663 6.648C42.665 6.648 43.5236 6.89333 44.1423 7.384C44.7716 7.87467 45.0863 8.61067 45.0863 9.592V15H43.4063ZM41.1823 13.736C41.7903 13.736 42.3023 13.5387 42.7183 13.144C43.1343 12.7493 43.3423 12.2693 43.3423 11.704V11.08H41.2623C40.1103 11.08 39.5343 11.528 39.5343 12.424C39.5343 12.84 39.6783 13.1653 39.9663 13.4C40.2543 13.624 40.6596 13.736 41.1823 13.736ZM55.0266 15H53.2186V11.592H49.2826V15H47.4746V6.856H49.2826V10.056H53.2186V6.856H55.0266V15ZM63.1534 15L61.4254 11.592H59.3294V15H57.5214V6.856H59.3294V10.056H61.4574L63.0894 6.856H64.9454L62.9454 10.776L65.0574 15H63.1534ZM66.1284 8.392V6.856H73.4244V8.392H70.6884V15H68.8804V8.392H66.1284ZM79.2744 11.32H74.6664V9.736H79.2744V11.32ZM81.4311 3.576H90.8551V15H88.9351V5.32H83.3511V15H81.4311V3.576ZM100.803 10.472V11.08H94.7866C94.8399 12.808 95.6026 13.672 97.0746 13.672C98.0026 13.672 98.5946 13.3253 98.8506 12.632H100.691C100.531 13.4213 100.141 14.0507 99.5226 14.52C98.9039 14.9787 98.0826 15.208 97.0586 15.208C95.7999 15.208 94.8079 14.808 94.0826 14.008C93.3572 13.208 92.9946 12.1627 92.9946 10.872C92.9946 9.592 93.3519 8.568 94.0666 7.8C94.7919 7.032 95.7732 6.648 97.0106 6.648C98.1839 6.648 99.1012 7.01067 99.7626 7.736C100.435 8.45067 100.781 9.36267 100.803 10.472ZM96.9946 8.088C95.8212 8.088 95.1119 8.63733 94.8666 9.736H98.9466C98.8826 9.256 98.6852 8.86133 98.3546 8.552C98.0239 8.24267 97.5706 8.088 96.9946 8.088ZM101.769 8.392V6.856H109.065V8.392H106.329V15H104.521V8.392H101.769ZM118.037 10.472V11.08H112.021C112.074 12.808 112.837 13.672 114.309 13.672C115.237 13.672 115.829 13.3253 116.085 12.632H117.925C117.765 13.4213 117.376 14.0507 116.757 14.52C116.138 14.9787 115.317 15.208 114.293 15.208C113.034 15.208 112.042 14.808 111.317 14.008C110.592 13.208 110.229 12.1627 110.229 10.872C110.229 9.592 110.586 8.568 111.301 7.8C112.026 7.032 113.008 6.648 114.245 6.648C115.418 6.648 116.336 7.01067 116.997 7.736C117.669 8.45067 118.016 9.36267 118.037 10.472ZM114.229 8.088C113.056 8.088 112.346 8.63733 112.101 9.736H116.181C116.117 9.256 115.92 8.86133 115.589 8.552C115.258 8.24267 114.805 8.088 114.229 8.088ZM124.053 8.184C123.306 8.184 122.741 8.44533 122.357 8.968C121.984 9.49067 121.797 10.1413 121.797 10.92C121.797 11.7093 121.984 12.3653 122.357 12.888C122.741 13.4107 123.306 13.672 124.053 13.672C124.768 13.672 125.317 13.4213 125.701 12.92C126.085 12.408 126.277 11.7413 126.277 10.92C126.277 10.0987 126.085 9.43733 125.701 8.936C125.317 8.43467 124.768 8.184 124.053 8.184ZM120.037 6.856H121.781V7.64H122.165C122.698 6.97867 123.498 6.648 124.565 6.648C125.642 6.648 126.496 7.048 127.125 7.848C127.765 8.648 128.085 9.672 128.085 10.92C128.085 12.1787 127.765 13.208 127.125 14.008C126.496 14.808 125.642 15.208 124.565 15.208C123.509 15.208 122.73 14.8773 122.229 14.216H121.845V18.2H120.037V6.856ZM134.052 7.032C135.225 7.032 136.158 7.416 136.852 8.184C137.556 8.952 137.908 9.93333 137.908 11.128C137.908 12.312 137.529 13.288 136.772 14.056C136.025 14.824 135.028 15.208 133.78 15.208C132.457 15.208 131.433 14.7813 130.708 13.928C129.982 13.0747 129.62 11.8427 129.62 10.232C129.62 9.48533 129.657 8.81867 129.732 8.232C129.817 7.64533 129.966 7.064 130.18 6.488C130.404 5.90133 130.734 5.42133 131.172 5.048C131.62 4.67467 132.174 4.43467 132.836 4.328L134.964 3.976C135.262 3.93333 135.465 3.87467 135.572 3.8C135.678 3.72533 135.742 3.58133 135.764 3.368H137.316C137.284 3.93333 137.156 4.38667 136.932 4.728C136.718 5.06933 136.302 5.288 135.684 5.384L133.092 5.8C132.484 5.896 132.025 6.14133 131.716 6.536C131.406 6.92 131.198 7.45867 131.092 8.152H131.476C132.052 7.40533 132.91 7.032 134.052 7.032ZM133.764 13.672C134.51 13.672 135.081 13.4213 135.476 12.92C135.87 12.4187 136.068 11.8053 136.068 11.08C136.068 10.3547 135.87 9.74667 135.476 9.256C135.081 8.76533 134.51 8.52 133.764 8.52C133.006 8.52 132.43 8.76533 132.036 9.256C131.641 9.74667 131.444 10.3547 131.444 11.08C131.444 11.8053 131.641 12.4187 132.036 12.92C132.43 13.4213 133.006 13.672 133.764 13.672ZM142.271 18.2H140.431L142.111 14.2L138.655 6.856H140.559L142.831 11.768H143.247L145.311 6.856H147.167L142.271 18.2ZM152.694 8.184C151.947 8.184 151.382 8.44533 150.998 8.968C150.624 9.49067 150.438 10.1413 150.438 10.92C150.438 11.7093 150.624 12.3653 150.998 12.888C151.382 13.4107 151.947 13.672 152.694 13.672C153.408 13.672 153.958 13.4213 154.342 12.92C154.726 12.408 154.918 11.7413 154.918 10.92C154.918 10.0987 154.726 9.43733 154.342 8.936C153.958 8.43467 153.408 8.184 152.694 8.184ZM148.678 6.856H150.422V7.64H150.806C151.339 6.97867 152.139 6.648 153.206 6.648C154.283 6.648 155.136 7.048 155.766 7.848C156.406 8.648 156.726 9.672 156.726 10.92C156.726 12.1787 156.406 13.208 155.766 14.008C155.136 14.808 154.283 15.208 153.206 15.208C152.15 15.208 151.371 14.8773 150.87 14.216H150.486V18.2H148.678V6.856ZM158.74 15V6.856H165.092V8.392H160.548V15H158.74Z" fill="#A0A0A0"/>
</svg>
