<svg width="26" height="25" viewBox="0 0 26 25" fill="none" xmlns="http://www.w3.org/2000/svg">
<rect x="0.5" width="25" height="25" rx="6" fill="#B1CD00"/>
<path d="M7.58982 3.63281C6.7051 3.63626 5.85761 3.98924 5.23202 4.61483C4.60643 5.24042 4.25345 6.08792 4.25 6.97263V18.293C4.25345 19.1777 4.60643 20.0252 5.23202 20.6508C5.85761 21.2764 6.7051 21.6294 7.58982 21.6328H18.9102C19.7949 21.6294 20.6424 21.2764 21.268 20.6508C21.8936 20.0252 22.2466 19.1777 22.25 18.293V6.97263C22.2466 6.08792 21.8936 5.24042 21.268 4.61483C20.6424 3.98924 19.7949 3.63626 18.9102 3.63281H7.58982ZM7.58982 5.26918H18.9102C19.8593 5.26918 20.6136 6.02354 20.6136 6.97263V18.293C20.6136 19.2421 19.8593 19.9964 18.9102 19.9964H7.58982C7.36572 19.9979 7.14358 19.9548 6.93627 19.8697C6.72896 19.7846 6.54061 19.6591 6.38215 19.5007C6.22368 19.3422 6.09826 19.1539 6.01315 18.9465C5.92805 18.7392 5.88495 18.5171 5.88636 18.293V6.97263C5.88636 6.02354 6.64073 5.26918 7.58982 5.26918ZM13.0201 9.54827C12.4187 9.54254 11.9074 9.54827 11.6202 9.68899C11.4279 9.78227 11.2815 9.99254 11.3706 10.0024C11.4827 10.0187 11.7347 10.0727 11.8697 10.2552C12.0415 10.4884 12.0358 11.0161 12.0358 11.0161C12.0358 11.0161 12.1315 12.4667 11.8018 12.6492C11.5752 12.7735 11.2651 12.5207 10.5942 11.3671C10.2522 10.7731 9.99364 10.1177 9.99364 10.1177C9.99364 10.1177 9.94455 9.99581 9.85618 9.93199C9.74736 9.85263 9.59682 9.82645 9.59682 9.82645L7.99564 9.83627C7.99564 9.83627 7.75591 9.84609 7.67 9.94836C7.58982 10.0441 7.66345 10.2323 7.66345 10.2323C7.66345 10.2323 8.91609 13.163 10.3348 14.6398C11.6357 15.9955 13.1125 15.9055 13.1125 15.9055H13.7835C13.7835 15.9055 13.9847 15.8834 14.087 15.7746C14.1835 15.6724 14.1803 15.4801 14.1803 15.4801C14.1803 15.4801 14.1672 14.5825 14.5828 14.4484C14.9952 14.3199 15.5188 15.3173 16.0785 15.701C16.5039 15.9914 16.8263 15.9276 16.8263 15.9276L18.3227 15.9055C18.3227 15.9055 19.1025 15.8573 18.7318 15.2404C18.7032 15.1929 18.5175 14.7871 17.6232 13.9558C16.6831 13.0869 16.8083 13.2276 17.939 11.7222C18.6263 10.805 18.9012 10.2454 18.8145 10.0024C18.7326 9.77572 18.227 9.83627 18.227 9.83627L16.5424 9.84609C16.5424 9.84609 16.418 9.82972 16.3255 9.88454C16.262 9.93175 16.2113 9.99422 16.1783 10.0662C16.1783 10.0662 15.9099 10.7755 15.5548 11.3802C14.807 12.6516 14.5035 12.722 14.3824 12.6426C14.0976 12.4569 14.168 11.9005 14.168 11.5078C14.168 10.2707 14.3562 9.75936 13.8039 9.62599C13.6215 9.58099 13.4873 9.55236 13.0209 9.54827H13.0201Z" fill="white"/>
</svg>
