<svg width="25" height="25" viewBox="0 0 25 25" fill="none" xmlns="http://www.w3.org/2000/svg">
<rect width="25" height="25" rx="6" fill="#B1CD00"/>
<path d="M19.3703 6.24961C18.5413 5.41675 17.5542 4.75645 16.4663 4.3072C15.3784 3.85794 14.2116 3.62871 13.0339 3.63287C8.09882 3.63287 4.07685 7.63561 4.07233 12.5496C4.07233 14.1235 4.48594 15.6546 5.26683 17.0102L4 21.6328L8.75088 20.3931C10.0652 21.1051 11.5376 21.4783 13.0339 21.4787H13.0384C17.9746 21.4787 21.9955 17.476 22 12.5575C22.0011 11.3853 21.7693 10.2244 21.3177 9.14184C20.8662 8.05925 20.204 7.07629 19.3692 6.24961H19.3703ZM13.0339 19.9689C11.6993 19.9694 10.3892 19.6119 9.24133 18.9339L8.97011 18.7719L6.15168 19.5077L6.90432 16.7706L6.72803 16.4882C5.98195 15.3073 5.58737 13.9401 5.59003 12.5451C5.59003 8.46585 8.93169 5.13811 13.0384 5.13811C14.0168 5.13637 14.9858 5.32742 15.8896 5.70026C16.7935 6.07311 17.6142 6.62036 18.3046 7.31048C18.9974 7.99791 19.5466 8.81508 19.9206 9.71486C20.2945 10.6146 20.4858 11.5792 20.4834 12.553C20.4789 16.6468 17.1372 19.9689 13.0339 19.9689ZM17.1192 14.4182C16.8965 14.3068 15.797 13.768 15.5902 13.6915C15.3845 13.6183 15.2342 13.5801 15.0873 13.8028C14.937 14.0245 14.5075 14.5296 14.3787 14.6747C14.2499 14.8243 14.1165 14.8412 13.8928 14.731C13.6701 14.6185 12.948 14.3845 12.0937 13.6228C11.4269 13.0322 10.9805 12.301 10.8472 12.0793C10.7184 11.8566 10.8348 11.7373 10.9466 11.626C11.045 11.527 11.1693 11.365 11.2811 11.2367C11.3941 11.1085 11.4314 11.014 11.5049 10.8655C11.5784 10.7147 11.5433 10.5865 11.4879 10.4751C11.4314 10.3637 10.9851 9.2646 10.7963 8.82135C10.6155 8.38373 10.4313 8.44448 10.2934 8.43885C10.1646 8.43098 10.0143 8.43098 9.86401 8.43098C9.75051 8.43379 9.63882 8.45992 9.53594 8.50774C9.43307 8.55556 9.34123 8.62403 9.2662 8.70885C9.06052 8.9316 8.48531 9.47048 8.48531 10.5696C8.48531 11.6687 9.28767 12.7251 9.40068 12.8747C9.51142 13.0243 10.976 15.2732 13.2238 16.2407C13.7549 16.4713 14.173 16.6075 14.4996 16.711C15.0364 16.882 15.5212 16.8561 15.9077 16.801C16.3371 16.7357 17.231 16.261 17.4198 15.7401C17.6051 15.2181 17.6051 14.7726 17.5486 14.6792C17.4932 14.5847 17.3429 14.5296 17.1192 14.4182Z" fill="white"/>
</svg>
