<svg width="25" height="25" viewBox="0 0 25 25" fill="none" xmlns="http://www.w3.org/2000/svg">
<rect width="25" height="25" rx="6" fill="#B1CD00"/>
<path fill-rule="evenodd" clip-rule="evenodd" d="M9.03955 3.68681C9.99927 3.64263 10.3053 3.63281 12.75 3.63281C15.1947 3.63281 15.5007 3.64345 16.4596 3.68681C17.4185 3.73018 18.0731 3.88318 18.6458 4.1049C19.2455 4.33154 19.7896 4.68581 20.2396 5.14399C20.6978 5.59318 21.0513 6.13645 21.2771 6.73699C21.4996 7.30972 21.6518 7.96427 21.696 8.92154C21.7402 9.8829 21.75 10.1889 21.75 12.6328C21.75 15.0775 21.7394 15.3835 21.696 16.3433C21.6526 17.3005 21.4996 17.9551 21.2771 18.5278C21.0513 19.1284 20.6972 19.6726 20.2396 20.1224C19.7896 20.5806 19.2455 20.9341 18.6458 21.1599C18.0731 21.3825 17.4185 21.5346 16.4613 21.5788C15.5007 21.623 15.1947 21.6328 12.75 21.6328C10.3053 21.6328 9.99927 21.6222 9.03955 21.5788C8.08227 21.5354 7.42773 21.3825 6.855 21.1599C6.25439 20.9341 5.71022 20.58 5.26036 20.1224C4.80249 19.673 4.44817 19.1291 4.22209 18.5286C4.00036 17.9559 3.84818 17.3014 3.804 16.3441C3.75982 15.3827 3.75 15.0767 3.75 12.6328C3.75 10.1881 3.76064 9.88209 3.804 8.92318C3.84736 7.96427 4.00036 7.30972 4.22209 6.73699C4.4485 6.13652 4.8031 5.59261 5.26118 5.14318C5.7104 4.6854 6.25402 4.33108 6.85418 4.1049C7.42691 3.88318 8.08145 3.73099 9.03873 3.68681H9.03955ZM16.3868 5.30681C15.4377 5.26345 15.153 5.25445 12.75 5.25445C10.347 5.25445 10.0623 5.26345 9.11318 5.30681C8.23527 5.3469 7.75909 5.49336 7.44164 5.6169C7.02191 5.78054 6.72164 5.97445 6.40664 6.28945C6.10804 6.57995 5.87824 6.93359 5.73409 7.32445C5.61055 7.6419 5.46409 8.11808 5.424 8.99599C5.38064 9.94509 5.37164 10.2298 5.37164 12.6328C5.37164 15.0358 5.38064 15.3205 5.424 16.2696C5.46409 17.1475 5.61055 17.6237 5.73409 17.9412C5.87809 18.3314 6.108 18.6857 6.40664 18.9762C6.69709 19.2748 7.05136 19.5047 7.44164 19.6487C7.75909 19.7723 8.23527 19.9187 9.11318 19.9588C10.0623 20.0022 10.3462 20.0112 12.75 20.0112C15.1538 20.0112 15.4377 20.0022 16.3868 19.9588C17.2647 19.9187 17.7409 19.7723 18.0584 19.6487C18.4781 19.4851 18.7784 19.2912 19.0934 18.9762C19.392 18.6857 19.6219 18.3314 19.7659 17.9412C19.8895 17.6237 20.0359 17.1475 20.076 16.2696C20.1194 15.3205 20.1284 15.0358 20.1284 12.6328C20.1284 10.2298 20.1194 9.94509 20.076 8.99599C20.0359 8.11808 19.8895 7.6419 19.7659 7.32445C19.6023 6.90472 19.4084 6.60445 19.0934 6.28945C18.8028 5.99087 18.4492 5.76108 18.0584 5.6169C17.7409 5.49336 17.2647 5.3469 16.3868 5.30681ZM11.6005 15.4073C12.2424 15.6745 12.9573 15.7106 13.6229 15.5093C14.2886 15.308 14.8637 14.8819 15.25 14.3037C15.6364 13.7256 15.81 13.0312 15.7413 12.3392C15.6726 11.6472 15.3657 11.0005 14.8732 10.5096C14.5592 10.1958 14.1795 9.95557 13.7615 9.80611C13.3436 9.65666 12.8976 9.60174 12.4559 9.64532C12.0141 9.68889 11.5875 9.82987 11.2067 10.0581C10.826 10.2863 10.5006 10.5961 10.254 10.9652C10.0073 11.3343 9.84561 11.7535 9.78042 12.1926C9.71524 12.6317 9.74821 13.0798 9.87699 13.5046C10.0058 13.9294 10.2271 14.3204 10.5251 14.6494C10.8231 14.9784 11.1904 15.2372 11.6005 15.4073ZM9.47891 9.36172C9.90847 8.93216 10.4184 8.59141 10.9797 8.35893C11.541 8.12645 12.1425 8.00679 12.75 8.00679C13.3575 8.00679 13.959 8.12645 14.5203 8.35893C15.0816 8.59141 15.5915 8.93216 16.0211 9.36172C16.4507 9.79129 16.7914 10.3013 17.0239 10.8625C17.2564 11.4238 17.376 12.0253 17.376 12.6328C17.376 13.2403 17.2564 13.8419 17.0239 14.4031C16.7914 14.9644 16.4507 15.4743 16.0211 15.9039C15.1535 16.7715 13.9769 17.2588 12.75 17.2588C11.5231 17.2588 10.3465 16.7715 9.47891 15.9039C8.61136 15.0364 8.12398 13.8597 8.12398 12.6328C8.12398 11.4059 8.61136 10.2293 9.47891 9.36172ZM18.402 8.69572C18.5084 8.59531 18.5937 8.47455 18.6526 8.34061C18.7116 8.20667 18.743 8.06226 18.7452 7.91594C18.7473 7.76961 18.72 7.62435 18.665 7.48875C18.61 7.35314 18.5284 7.22996 18.4249 7.12648C18.3214 7.023 18.1982 6.94134 18.0626 6.88633C17.927 6.83131 17.7817 6.80407 17.6354 6.8062C17.4891 6.80833 17.3447 6.8398 17.2107 6.89875C17.0768 6.95769 16.9561 7.04291 16.8556 7.14936C16.6603 7.35638 16.5534 7.63137 16.5576 7.91594C16.5617 8.20051 16.6766 8.47226 16.8779 8.6735C17.0791 8.87475 17.3508 8.98964 17.6354 8.99378C17.92 8.99793 18.195 8.89101 18.402 8.69572Z" fill="white"/>
</svg>
