<svg width="14" height="11" fill="none" xmlns="http://www.w3.org/2000/svg"><path fill-rule="evenodd" clip-rule="evenodd" d="M0 5.287c0-.155.053-.305.146-.415A.466.466 0 01.5 4.7h11.793L9.146 1.004a.644.644 0 01-.147-.416c0-.156.053-.306.147-.416A.466.466 0 019.5 0c.133 0 .26.061.354.172l4 4.7a.604.604 0 01.109.19.678.678 0 010 .45.604.604 0 01-.109.191l-4 4.7a.466.466 0 01-.354.172.466.466 0 01-.354-.172.644.644 0 01-.147-.416c0-.156.053-.306.147-.416l3.147-3.696H.5a.466.466 0 01-.354-.172A.643.643 0 010 5.287z" fill="#3C4045"/></svg>