<svg width="43" height="15" viewBox="0 0 43 15" fill="none" xmlns="http://www.w3.org/2000/svg">
<path d="M17.4054 0.912109L15.2738 14.1764H18.6808L20.8111 0.912109H17.4054ZM27.6821 6.31525C26.4915 5.72731 25.7616 5.33049 25.7616 4.72916C25.7762 4.18241 26.3788 3.62227 27.7246 3.62227C28.8315 3.59447 29.6451 3.85459 30.2623 4.11341L30.5714 4.25141L31.0346 1.47618C30.3617 1.21605 29.2947 0.929431 27.9767 0.929431C24.6122 0.929431 22.2431 2.67871 22.2284 5.18056C22.2006 7.02678 23.9246 8.05128 25.2147 8.66586C26.5327 9.29631 26.9813 9.70506 26.9813 10.2652C26.9668 11.1252 25.9156 11.522 24.9348 11.522C23.5758 11.522 22.8458 11.3177 21.7376 10.8384L21.2889 10.6341L20.8125 13.5182C21.6128 13.8739 23.0847 14.1871 24.6124 14.2031C28.1879 14.2031 30.5145 12.4803 30.5438 9.81395C30.5554 8.35129 29.6464 7.23101 27.6821 6.31525ZM39.7691 0.953159H37.1332C36.3209 0.953159 35.7037 1.18679 35.352 2.02031L30.2912 14.1764H33.8668L34.8515 11.5446H38.8519L39.3628 14.1871H42.5164L39.7691 0.953159ZM35.8431 8.88858C35.9121 8.89528 37.2155 4.59233 37.2155 4.59233L38.2534 8.88858C38.2534 8.88858 36.5161 8.88858 35.8431 8.88858ZM12.427 0.912109L9.089 9.924L8.72538 8.14677C8.10817 6.09617 6.17315 3.86784 4.01367 2.76095L7.07028 14.1632H10.6751L16.0318 0.913564H12.427V0.912109Z" fill="#2394BC"/>
<path d="M7.60216 2.62019C7.34203 1.60879 6.51245 0.926666 5.38576 0.912109H0.0993638L0.0449219 1.15753C4.16868 2.17417 7.62997 5.3024 8.75287 8.24489L7.60216 2.62019Z" fill="#EFC75E"/>
</svg>
