<svg width="46" height="14" viewBox="0 0 46 14" fill="none" xmlns="http://www.w3.org/2000/svg">
<g clip-path="url(#clip0)">
<path fill-rule="evenodd" clip-rule="evenodd" d="M12.5974 0.113281V0.118998C12.5919 0.118998 10.8362 0.113281 10.3681 1.83391C9.9389 3.41162 8.72945 7.7675 8.69601 7.88754H8.3616C8.3616 7.88754 7.12429 3.43449 6.68956 1.82819C6.22139 0.107565 4.46017 0.113281 4.46017 0.113281H0.447266V13.2038H4.46017V5.4295H4.62737H4.79458L7.13544 13.2038H9.92218L12.263 5.43522H12.5974V13.2038H16.6103V0.113281H12.5974Z" fill="#4DB45E"/>
<path fill-rule="evenodd" clip-rule="evenodd" d="M27.2555 0.113281C27.2555 0.113281 26.0794 0.221892 25.5277 1.48521L22.6852 7.88754H22.3508V0.113281H18.3379V13.2038H22.1279C22.1279 13.2038 23.3596 13.0894 23.9114 11.8318L26.6981 5.4295H27.0325V13.2038H31.0454V0.113281H27.2555Z" fill="#4DB45E"/>
<path fill-rule="evenodd" clip-rule="evenodd" d="M32.8281 6.05859V13.204H36.841V9.0311H41.1883C43.0833 9.0311 44.6885 7.79065 45.2848 6.05859H32.8281Z" fill="#4DB45E"/>
<path fill-rule="evenodd" clip-rule="evenodd" d="M41.1888 0.113281H32.2656C32.7115 2.60562 34.534 4.60634 36.8916 5.25801C37.4267 5.40664 37.9896 5.48667 38.5692 5.48667H45.4469C45.5082 5.18941 45.5361 4.88645 45.5361 4.57205C45.5361 2.10829 43.5909 0.113281 41.1888 0.113281Z" fill="url(#paint0_linear)"/>
</g>
<defs>
<linearGradient id="paint0_linear" x1="32.2667" y1="2.79997" x2="45.5361" y2="2.79997" gradientUnits="userSpaceOnUse">
<stop offset="0.3" stop-color="#00B4E6"/>
<stop offset="1" stop-color="#088CCB"/>
</linearGradient>
<clipPath id="clip0">
<rect width="45.0894" height="13.0905" fill="white" transform="translate(0.447266 0.113281)"/>
</clipPath>
</defs>
</svg>
