<svg width="30" height="19" viewBox="0 0 30 19" fill="none" xmlns="http://www.w3.org/2000/svg">
<path d="M29.863 9.4266C29.863 14.3563 25.8813 18.3854 20.9041 18.3854C15.9744 18.3854 11.9453 14.3563 11.9453 9.4266C11.9453 4.49688 15.927 0.467773 20.8567 0.467773C25.8813 0.467773 29.863 4.49688 29.863 9.4266Z" fill="#FFB600"/>
<path d="M20.9041 0.467773C25.8339 0.467773 29.863 4.49688 29.863 9.4266C29.863 14.3563 25.8813 18.3854 20.9041 18.3854C15.9744 18.3854 11.9453 14.3563 11.9453 9.4266" fill="#F7981D"/>
<path d="M20.9043 0.467773C25.834 0.467773 29.8631 4.49688 29.8631 9.4266C29.8631 14.3563 25.8814 18.3854 20.9043 18.3854" fill="#FF8500"/>
<path d="M8.86403 0.467773C3.9817 0.515175 0 4.49688 0 9.4266C0 14.3563 3.9817 18.3854 8.95883 18.3854C11.2815 18.3854 13.3671 17.4848 14.9788 16.0628C15.3106 15.7784 15.595 15.4466 15.8794 15.1147H14.0308C13.7938 14.8303 13.5567 14.4985 13.3671 14.2141H16.543C16.7326 13.9297 16.9222 13.5979 17.0644 13.2661H12.8457C12.7035 12.9817 12.5613 12.6499 12.4665 12.3181H17.3962C17.6807 11.4175 17.8703 10.4694 17.8703 9.474C17.8703 8.81039 17.7755 8.19417 17.6807 7.57796H12.1821C12.2295 7.24615 12.3243 6.96174 12.4191 6.62993H17.3488C17.254 6.29812 17.1118 5.96631 16.9696 5.68191H12.7983C12.9405 5.3501 13.1301 5.06569 13.3197 4.73388H16.4956C16.306 4.40207 16.069 4.07027 15.7846 3.78586H14.0308C14.3152 3.45405 14.5996 3.16964 14.9314 2.88524C13.3671 1.4158 11.2341 0.562576 8.91143 0.562576C8.91143 0.467773 8.91143 0.467773 8.86403 0.467773Z" fill="#FF5050"/>
<path d="M0 9.42653C0 14.3563 3.9817 18.3854 8.95883 18.3854C11.2815 18.3854 13.3671 17.4847 14.9788 16.0627C15.3106 15.7783 15.595 15.4465 15.8794 15.1147H14.0308C13.7938 14.8303 13.5567 14.4985 13.3671 14.2141H16.543C16.7326 13.9296 16.9222 13.5978 17.0644 13.266H12.8457C12.7035 12.9816 12.5613 12.6498 12.4665 12.318H17.3962C17.6807 11.4174 17.8703 10.4694 17.8703 9.47393C17.8703 8.81031 17.7755 8.1941 17.6807 7.57788H12.1821C12.2295 7.24607 12.3243 6.96166 12.4191 6.62986H17.3488C17.254 6.29805 17.1118 5.96624 16.9696 5.68183H12.7983C12.9405 5.35002 13.1301 5.06562 13.3197 4.73381H16.4956C16.306 4.402 16.069 4.07019 15.7846 3.78578H14.0308C14.3152 3.45397 14.5996 3.16957 14.9314 2.88516C13.3671 1.41572 11.2341 0.5625 8.91143 0.5625H8.86403" fill="#E52836"/>
<path d="M8.96004 18.3854C11.2827 18.3854 13.3683 17.4847 14.98 16.0627C15.3118 15.7783 15.5962 15.4465 15.8806 15.1147H14.032C13.795 14.8303 13.558 14.4985 13.3683 14.2141H16.5442C16.7338 13.9296 16.9234 13.5978 17.0656 13.266H12.8469C12.7047 12.9816 12.5625 12.6498 12.4677 12.318H17.3975C17.6819 11.4174 17.8715 10.4694 17.8715 9.47393C17.8715 8.81031 17.7767 8.1941 17.6819 7.57788H12.1833C12.2307 7.24607 12.3255 6.96166 12.4203 6.62986H17.3501C17.2552 6.29805 17.113 5.96624 16.9708 5.68183H12.7995C12.9417 5.35002 13.1313 5.06562 13.3209 4.73381H16.4968C16.3072 4.402 16.0702 4.07019 15.7858 3.78578H14.032C14.3164 3.45397 14.6008 3.16957 14.9326 2.88516C13.3683 1.41572 11.2353 0.5625 8.91263 0.5625H8.86523" fill="#CB2026"/>
<path d="M12.1344 11.7026L12.2766 10.8967C12.2292 10.8967 12.1344 10.9441 12.0396 10.9441C11.7078 10.9441 11.6604 10.7545 11.7078 10.6597L11.9922 9.00069H12.5136L12.6558 8.10006H12.1818L12.2766 7.53125H11.3286C11.3286 7.53125 10.7598 10.6597 10.7598 11.0389C10.7598 11.6078 11.0916 11.8448 11.5182 11.8448C11.8026 11.8448 12.0396 11.75 12.1344 11.7026Z" fill="white"/>
<path d="M12.4668 10.1859C12.4668 11.5132 13.3674 11.845 14.1258 11.845C14.8369 11.845 15.1213 11.7028 15.1213 11.7028L15.3109 10.8021C15.3109 10.8021 14.7895 11.0392 14.3154 11.0392C13.2726 11.0392 13.4622 10.2807 13.4622 10.2807H15.4057C15.4057 10.2807 15.5479 9.66452 15.5479 9.42751C15.5479 8.81129 15.2161 8.05287 14.1732 8.05287C13.1778 7.95807 12.4668 9.0009 12.4668 10.1859ZM14.1258 8.81129C14.6473 8.81129 14.5525 9.42751 14.5525 9.47491H13.5096C13.5096 9.42751 13.6044 8.81129 14.1258 8.81129Z" fill="white"/>
<path d="M20.1461 11.7024L20.3357 10.6596C20.3357 10.6596 19.8617 10.8966 19.5299 10.8966C18.8663 10.8966 18.5819 10.3752 18.5819 9.80636C18.5819 8.66873 19.1507 8.05251 19.8143 8.05251C20.2883 8.05251 20.6675 8.33692 20.6675 8.33692L20.8097 7.3415C20.8097 7.3415 20.2409 7.10449 19.7195 7.10449C18.6293 7.10449 17.5391 8.05252 17.5391 9.85376C17.5391 11.0388 18.1079 11.8446 19.2455 11.8446C19.6247 11.8446 20.1461 11.7024 20.1461 11.7024Z" fill="white"/>
<path d="M6.92038 7.95703C6.25677 7.95703 5.78276 8.14664 5.78276 8.14664L5.64055 8.95245C5.64055 8.95245 6.06716 8.76285 6.68338 8.76285C7.01519 8.76285 7.29959 8.81025 7.29959 9.09466C7.29959 9.28426 7.25219 9.33166 7.25219 9.33166C7.25219 9.33166 6.96778 9.33166 6.82558 9.33166C6.01976 9.33166 5.11914 9.66347 5.11914 10.7537C5.11914 11.6069 5.68795 11.7965 6.01976 11.7965C6.68338 11.7965 6.96779 11.3699 7.01519 11.3699L6.96778 11.7491H7.82101L8.20021 9.14206C8.20021 8.00443 7.25219 7.95703 6.92038 7.95703ZM7.10999 10.0901C7.10999 10.2323 7.01519 10.9907 6.44637 10.9907C6.16197 10.9907 6.06716 10.7537 6.06716 10.6115C6.06716 10.3745 6.20937 10.0427 6.92038 10.0427C7.06259 10.0901 7.10999 10.0901 7.10999 10.0901Z" fill="white"/>
<path d="M9.10195 11.7971C9.33895 11.7971 10.524 11.8445 10.524 10.5646C10.524 9.37959 9.38635 9.6166 9.38635 9.14259C9.38635 8.90558 9.57596 8.81078 9.90777 8.81078C10.05 8.81078 10.5714 8.85818 10.5714 8.85818L10.7136 8.00496C10.7136 8.00496 10.3818 7.91016 9.81297 7.91016C9.10195 7.91016 8.39093 8.19456 8.39093 9.14259C8.39093 10.2328 9.57596 10.138 9.57596 10.5646C9.57596 10.849 9.24415 10.8964 9.00714 10.8964C8.58053 10.8964 8.15392 10.7542 8.15392 10.7542L8.01172 11.6074C8.05912 11.7022 8.29613 11.7971 9.10195 11.7971Z" fill="white"/>
<path d="M28.0144 7.19922L27.8248 8.47905C27.8248 8.47905 27.4456 8.00504 26.9241 8.00504C26.0709 8.00504 25.3125 9.04787 25.3125 10.2803C25.3125 11.0387 25.6917 11.8445 26.4975 11.8445C27.0663 11.8445 27.3982 11.4653 27.3982 11.4653L27.3508 11.7971H28.2988L29.0098 7.24662L28.0144 7.19922ZM27.5878 9.71148C27.5878 10.2329 27.3508 10.8965 26.8293 10.8965C26.4975 10.8965 26.3079 10.6121 26.3079 10.1381C26.3079 9.37968 26.6397 8.90566 27.0663 8.90566C27.3982 8.90566 27.5878 9.14267 27.5878 9.71148Z" fill="white"/>
<path d="M1.75414 11.7497L2.32295 8.33685L2.41776 11.7497H3.08137L4.3138 8.33685L3.79239 11.7497H4.78782L5.54624 7.19922H3.982L3.03397 9.99589L2.98657 7.19922H1.61194L0.853516 11.7497H1.75414Z" fill="white"/>
<path d="M16.4471 11.749C16.7315 10.1848 16.7789 8.90498 17.4425 9.14198C17.5374 8.52577 17.6796 8.28876 17.7744 8.05176C17.7744 8.05176 17.727 8.05176 17.5848 8.05176C17.1581 8.05176 16.8263 8.62057 16.8263 8.62057L16.9211 8.09916H16.0205L15.4043 11.7964H16.4471V11.749Z" fill="white"/>
<path d="M22.3266 7.95703C21.663 7.95703 21.189 8.14664 21.189 8.14664L21.0468 8.95245C21.0468 8.95245 21.4734 8.76285 22.0896 8.76285C22.4214 8.76285 22.7059 8.81025 22.7059 9.09466C22.7059 9.28426 22.6584 9.33166 22.6584 9.33166C22.6584 9.33166 22.374 9.33166 22.2318 9.33166C21.426 9.33166 20.5254 9.66347 20.5254 10.7537C20.5254 11.6069 21.0942 11.7965 21.426 11.7965C22.0896 11.7965 22.374 11.3699 22.4214 11.3699L22.374 11.7491H23.2273L23.6065 9.14206C23.6539 8.00443 22.6584 7.95703 22.3266 7.95703ZM22.5636 10.0901C22.5636 10.2323 22.4688 10.9907 21.9 10.9907C21.6156 10.9907 21.5208 10.7537 21.5208 10.6115C21.5208 10.3745 21.663 10.0427 22.374 10.0427C22.5162 10.0901 22.5162 10.0901 22.5636 10.0901Z" fill="white"/>
<path d="M24.412 11.749C24.6964 10.1848 24.7438 8.90498 25.4074 9.14198C25.5022 8.52577 25.6444 8.28876 25.7392 8.05176C25.7392 8.05176 25.6918 8.05176 25.5496 8.05176C25.123 8.05176 24.7912 8.62057 24.7912 8.62057L24.886 8.09916H23.9854L23.3691 11.7964H24.412V11.749Z" fill="white"/>
<path d="M10.666 11.0389C10.666 11.6078 10.9978 11.8448 11.4244 11.8448C11.7562 11.8448 12.0407 11.75 12.1355 11.7026L12.2777 10.8967C12.2303 10.8967 12.1355 10.9441 12.0407 10.9441C11.7088 10.9441 11.6614 10.7545 11.7088 10.6597L11.9932 9.00069H12.5147L12.6569 8.10006H12.1829L12.2777 7.53125" fill="#DCE5E5"/>
<path d="M12.9395 10.1859C12.9395 11.5132 13.3661 11.845 14.1245 11.845C14.8355 11.845 15.1199 11.7028 15.1199 11.7028L15.3095 10.8021C15.3095 10.8021 14.7881 11.0392 14.3141 11.0392C13.2713 11.0392 13.4609 10.2807 13.4609 10.2807H15.4043C15.4043 10.2807 15.5465 9.66452 15.5465 9.42751C15.5465 8.81129 15.2147 8.05287 14.1719 8.05287C13.1765 7.95807 12.9395 9.0009 12.9395 10.1859ZM14.1245 8.81129C14.6459 8.81129 14.7407 9.42751 14.7407 9.47491H13.5083C13.5083 9.42751 13.6031 8.81129 14.1245 8.81129Z" fill="#DCE5E5"/>
<path d="M20.1467 11.7024L20.3363 10.6596C20.3363 10.6596 19.8623 10.8966 19.5305 10.8966C18.8669 10.8966 18.5825 10.3752 18.5825 9.80636C18.5825 8.66873 19.1513 8.05251 19.8149 8.05251C20.2889 8.05251 20.6681 8.33692 20.6681 8.33692L20.8103 7.3415C20.8103 7.3415 20.2415 7.10449 19.7201 7.10449C18.6299 7.10449 18.0137 8.05252 18.0137 9.85376C18.0137 11.0388 18.1085 11.8446 19.2461 11.8446C19.6253 11.8446 20.1467 11.7024 20.1467 11.7024Z" fill="#DCE5E5"/>
<path d="M5.64055 9.00076C5.64055 9.00076 6.06716 8.81115 6.68338 8.81115C7.01519 8.81115 7.29959 8.85855 7.29959 9.14296C7.29959 9.33256 7.25219 9.37996 7.25219 9.37996C7.25219 9.37996 6.96778 9.37996 6.82558 9.37996C6.01976 9.37996 5.11914 9.71177 5.11914 10.802C5.11914 11.6552 5.68795 11.8448 6.01976 11.8448C6.68338 11.8448 6.96779 11.4182 7.01519 11.4182L6.96778 11.7974H7.82101L8.20021 9.19036C8.20021 8.10014 7.25219 8.05273 6.87298 8.05273L5.64055 9.00076ZM7.584 10.091C7.584 10.2332 7.01519 10.9916 6.44637 10.9916C6.16197 10.9916 6.06716 10.7546 6.06716 10.6124C6.06716 10.3754 6.20937 10.0436 6.92038 10.0436C7.06259 10.091 7.584 10.091 7.584 10.091Z" fill="#DCE5E5"/>
<path d="M8.05859 11.7022C8.05859 11.7022 8.343 11.7971 9.14882 11.7971C9.38583 11.7971 10.5709 11.8445 10.5709 10.5646C10.5709 9.37959 9.43323 9.6166 9.43323 9.14259C9.43323 8.90558 9.62283 8.81078 9.95464 8.81078C10.0968 8.81078 10.6183 8.85818 10.6183 8.85818L10.7605 8.00496C10.7605 8.00496 10.4287 7.91016 9.85984 7.91016C9.14882 7.91016 8.91182 8.19456 8.91182 9.14259C8.91182 10.2328 9.62283 10.138 9.62283 10.5646C9.62283 10.849 9.29103 10.8964 9.05402 10.8964" fill="#DCE5E5"/>
<path d="M27.8268 8.47852C27.8268 8.47852 27.4476 8.00451 26.9262 8.00451C26.073 8.00451 25.7886 9.04734 25.7886 10.2798C25.7886 11.0382 25.6938 11.844 26.4996 11.844C27.0684 11.844 27.4002 11.4648 27.4002 11.4648L27.3528 11.7966H28.3009L29.0119 7.24609L27.8268 8.47852ZM27.7794 9.71095C27.7794 10.2324 27.3528 10.896 26.8314 10.896C26.4996 10.896 26.31 10.6116 26.31 10.1376C26.31 9.37914 26.6418 8.90513 27.0684 8.90513C27.4002 8.90513 27.7794 9.14214 27.7794 9.71095Z" fill="#DCE5E5"/>
<path d="M1.75414 11.7497L2.32295 8.33685L2.41776 11.7497H3.08137L4.3138 8.33685L3.79239 11.7497H4.78782L5.54624 7.19922H4.36121L3.03397 9.99589L2.98657 7.19922H2.46516L0.853516 11.7497H1.75414Z" fill="#DCE5E5"/>
<path d="M15.4531 11.749H16.4486C16.733 10.1848 16.7804 8.90498 17.444 9.14198C17.5388 8.52577 17.681 8.28876 17.7758 8.05176C17.7758 8.05176 17.7284 8.05176 17.5862 8.05176C17.1596 8.05176 16.8278 8.62057 16.8278 8.62057L16.9226 8.09916" fill="#DCE5E5"/>
<path d="M21.0468 9.00076C21.0468 9.00076 21.4734 8.81115 22.0896 8.81115C22.4214 8.81115 22.7058 8.85855 22.7058 9.14296C22.7058 9.33256 22.6584 9.37996 22.6584 9.37996C22.6584 9.37996 22.374 9.37996 22.2318 9.37996C21.426 9.37996 20.5254 9.71177 20.5254 10.802C20.5254 11.6552 21.0942 11.8448 21.426 11.8448C22.0896 11.8448 22.374 11.4182 22.4214 11.4182L22.374 11.7974H23.2273L23.6065 9.19036C23.6065 8.10014 22.6584 8.05273 22.2792 8.05273L21.0468 9.00076ZM22.9903 10.091C22.9903 10.2332 22.4214 10.9916 21.8526 10.9916C21.5682 10.9916 21.4734 10.7546 21.4734 10.6124C21.4734 10.3754 21.6156 10.0436 22.3266 10.0436C22.5162 10.091 22.9903 10.091 22.9903 10.091Z" fill="#DCE5E5"/>
<path d="M23.418 11.749H24.4134C24.6978 10.1848 24.7452 8.90498 25.4088 9.14198C25.5036 8.52577 25.6458 8.28876 25.7406 8.05176C25.7406 8.05176 25.6932 8.05176 25.551 8.05176C25.1244 8.05176 24.7926 8.62057 24.7926 8.62057L24.8874 8.09916" fill="#DCE5E5"/>
</svg>
