<svg width="25" height="25" viewBox="0 0 25 25" fill="none" xmlns="http://www.w3.org/2000/svg">
<path d="M22.9166 5.30622C21.9861 3.3965 19.3055 1.834 16.1874 2.74372C14.6975 3.17409 13.3975 4.09704 12.4999 5.36177C11.6024 4.09704 10.3024 3.17409 8.81245 2.74372C5.68745 1.84788 3.01384 3.3965 2.08328 5.30622C0.777726 7.97983 1.31939 10.9868 3.69439 14.2437C5.5555 16.7923 8.21523 19.3757 12.0763 22.3757C12.1984 22.4708 12.3487 22.5225 12.5034 22.5225C12.6582 22.5225 12.8085 22.4708 12.9305 22.3757C16.7847 19.3826 19.4513 16.8201 21.3124 14.2437C23.6805 10.9868 24.2222 7.97983 22.9166 5.30622Z" fill="#E0E0E0"/>
</svg>
