<svg width="28" height="27" viewBox="0 0 28 27" fill="none" xmlns="http://www.w3.org/2000/svg">
<path d="M27.1768 6.07002C26.7447 5.03374 26.1216 4.09466 25.3425 3.30537C24.5627 2.51372 23.6434 1.88461 22.6345 1.45225C21.5882 1.00213 20.4661 0.771737 19.3333 0.774438C17.7439 0.774438 16.1933 1.2252 14.8457 2.07663C14.5233 2.28031 14.2171 2.50402 13.9269 2.74776C13.6368 2.50402 13.3305 2.28031 13.0081 2.07663C11.6606 1.2252 10.1099 0.774438 8.52056 0.774438C7.3761 0.774438 6.26711 1.00149 5.21937 1.45225C4.20709 1.88631 3.29475 2.5107 2.51136 3.30537C1.73118 4.09377 1.10796 5.03307 0.677003 6.07002C0.228891 7.14851 0 8.29377 0 9.47242C0 10.5843 0.21922 11.7429 0.654436 12.9216C1.01873 13.9066 1.54099 14.9283 2.20832 15.96C3.26573 17.5928 4.71967 19.2956 6.52501 21.0219C9.51672 23.8834 12.4794 25.86 12.6051 25.9402L13.3692 26.4477C13.7077 26.6714 14.1429 26.6714 14.4814 26.4477L15.2455 25.9402C15.3712 25.8567 18.3306 23.8834 21.3256 21.0219C23.1309 19.2956 24.5849 17.5928 25.6423 15.96C26.3096 14.9283 26.8351 13.9066 27.1962 12.9216C27.6314 11.7429 27.8506 10.5843 27.8506 9.47242C27.8538 8.29377 27.6249 7.14851 27.1768 6.07002ZM13.9269 23.8066C13.9269 23.8066 2.4501 16.1904 2.4501 9.47242C2.4501 6.07002 5.16779 3.31205 8.52056 3.31205C10.8772 3.31205 12.9211 4.67434 13.9269 6.66436C14.9327 4.67434 16.9766 3.31205 19.3333 3.31205C22.686 3.31205 25.4037 6.07002 25.4037 9.47242C25.4037 16.1904 13.9269 23.8066 13.9269 23.8066Z" fill="#3C4045"/>
</svg>
